
<svg width="172" height="29" viewBox="0 0 672.205 109.668" xmlns="http://www.w3.org/2000/svg"><g id="svgGroup" stroke-linecap="round" fill-rule="evenodd" font-size="9pt" stroke="#000" stroke-width="0" fill="#ffffff" style="stroke:#000;stroke-width:0;fill:#ffffff"><path d="M 353.32 26.66 L 357.715 15.479 A 36.844 36.844 0 0 0 353.861 19.62 Q 347.998 26.828 340.159 41.366 A 323.858 323.858 0 0 0 339.404 42.774 L 327.588 65.137 Q 318.675 81.769 314.56 82.751 A 2.142 2.142 0 0 1 314.063 82.813 A 7.017 7.017 0 0 1 311.89 82.497 Q 309.819 81.825 308.792 79.721 A 7.295 7.295 0 0 1 308.643 79.395 Q 307.324 76.123 307.324 68.286 A 89.471 89.471 0 0 1 308.244 55.285 A 81.01 81.01 0 0 1 308.569 53.247 A 146.292 146.292 0 0 1 311.719 39.16 A 172.282 172.282 0 0 1 320.313 15.039 Q 315.186 17.92 308.936 27.881 Q 304.329 35.543 302.347 39.223 A 77.342 77.342 0 0 0 302.197 39.502 L 289.6 62.695 Q 281.738 77.002 276.953 80.371 Q 273.486 82.813 269.482 82.813 Q 266.065 82.813 264.551 80.664 A 4.458 4.458 0 0 1 264.229 80.103 Q 264.083 79.794 264.017 79.504 A 2.046 2.046 0 0 1 263.965 79.053 Q 263.965 78.709 264.062 78.495 A 0.562 0.562 0 0 1 264.404 78.174 A 29.462 29.462 0 0 0 265.807 77.754 Q 267.2 77.296 268.075 76.817 A 5.662 5.662 0 0 0 268.677 76.441 A 88.683 88.683 0 0 0 271.143 74.585 A 7.828 7.828 0 0 0 271.823 73.975 Q 272.949 72.858 274.707 70.532 A 81.588 81.588 0 0 0 276.833 67.576 Q 278.247 65.52 279.785 63.062 A 175.553 175.553 0 0 0 282.581 58.429 A 230.601 230.601 0 0 0 285.498 53.272 L 291.699 41.846 Q 298.447 28.811 305.676 19.84 A 81.991 81.991 0 0 1 309.668 15.235 A 39.023 39.023 0 0 1 312.555 12.424 Q 314.398 10.816 316.211 9.717 A 18.021 18.021 0 0 1 322.347 6.93 A 21.425 21.425 0 0 1 323.682 6.641 A 12.25 12.25 0 0 1 324.811 6.458 A 9.355 9.355 0 0 1 325.855 6.397 Q 326.856 6.397 328.101 6.69 A 7.01 7.01 0 0 1 329.401 7.127 A 5.779 5.779 0 0 1 330.273 7.617 A 4.22 4.22 0 0 1 331.094 8.334 Q 332.037 9.423 331.717 10.919 A 4.653 4.653 0 0 1 331.543 11.524 A 20.154 20.154 0 0 1 331.302 12.348 Q 330.882 13.688 330.07 15.812 A 121.254 121.254 0 0 1 330.029 15.918 L 327.393 22.901 A 196.962 196.962 0 0 0 321.003 43.957 Q 317.786 57.369 317.285 69.287 A 160.776 160.776 0 0 0 320.539 63.409 A 197.159 197.159 0 0 0 322.51 59.57 L 328.027 48.682 L 333.838 37.598 A 149.967 149.967 0 0 1 339.621 27.722 Q 349.603 12.19 358.464 9.188 A 14.99 14.99 0 0 1 358.789 9.082 Q 360.359 8.57 361.593 8.393 A 8.522 8.522 0 0 1 362.793 8.301 Q 364.404 8.301 365.332 8.716 A 6.685 6.685 0 0 1 366.992 9.766 A 5.422 5.422 0 0 1 367.643 10.466 Q 368.581 11.693 368.164 12.964 Q 367.627 14.6 366.748 17.139 L 359.668 37.793 L 357.129 45.899 A 253.426 253.426 0 0 0 355.243 52.521 Q 352.734 61.841 352.148 67.481 A 15.826 15.826 0 0 0 352.091 68.351 Q 352.017 70.376 352.541 71.758 A 5.027 5.027 0 0 0 352.856 72.437 A 4.244 4.244 0 0 0 353.537 73.357 A 2.821 2.821 0 0 0 355.615 74.219 A 18.671 18.671 0 0 0 356.64 74.193 Q 357.576 74.141 358.225 73.988 A 5.052 5.052 0 0 0 358.374 73.95 A 13.107 13.107 0 0 0 359.199 73.701 Q 359.602 73.564 359.95 73.411 A 7.568 7.568 0 0 0 360.107 73.34 L 361.377 72.754 A 2.915 2.915 0 0 1 361.75 72.581 Q 362.072 72.461 362.354 72.461 A 1.193 1.193 0 0 1 362.95 72.602 Q 363.574 72.955 363.574 74.195 A 7.781 7.781 0 0 1 363.485 75.407 Q 363.337 76.348 362.94 77.051 A 11.689 11.689 0 0 1 361.475 79.102 A 9.155 9.155 0 0 1 360.469 80.06 A 12.351 12.351 0 0 1 359.375 80.86 Q 356.397 82.813 353.101 82.813 A 22.096 22.096 0 0 1 351.174 82.734 Q 350.204 82.649 349.389 82.471 A 8.779 8.779 0 0 1 347.876 82.007 Q 345.947 81.201 344.531 79.59 A 11.19 11.19 0 0 1 342.104 75.056 Q 341.504 72.917 341.504 70.264 A 42.17 42.17 0 0 1 341.847 65.108 Q 342.419 60.483 343.945 54.761 A 297.994 297.994 0 0 1 345.752 48.265 Q 346.681 45.075 347.584 42.287 A 153.235 153.235 0 0 1 348.657 39.087 A 276.022 276.022 0 0 1 352.132 29.653 A 244.791 244.791 0 0 1 353.32 26.66 Z M 114.209 49.219 L 110.156 54.199 L 102.344 64.404 A 270.99 270.99 0 0 0 101.004 66.977 Q 99.375 70.148 98.254 72.568 A 90.55 90.55 0 0 0 97.9 73.34 L 95.264 79.004 Q 94.451 80.668 93.807 81.55 A 5.581 5.581 0 0 1 93.481 81.958 A 2.492 2.492 0 0 1 91.86 82.787 A 3.534 3.534 0 0 1 91.431 82.813 A 6.829 6.829 0 0 1 88.94 82.349 A 7.887 7.887 0 0 1 87.569 81.664 A 6.672 6.672 0 0 1 86.865 81.153 A 6.578 6.578 0 0 1 85.887 80.147 Q 85.01 79.01 85.01 77.735 A 1.95 1.95 0 0 1 85.064 77.322 Q 85.216 76.644 85.787 75.387 A 31.099 31.099 0 0 1 86.035 74.854 L 87.988 70.899 Q 97.119 52.1 104.541 23.242 A 223.103 223.103 0 0 0 106.644 14.34 Q 107.591 9.904 108.222 5.918 A 128.951 128.951 0 0 0 108.496 4.102 Q 109.033 0 112.5 0 Q 114.746 0 116.211 1.074 A 9.819 9.819 0 0 1 117.503 2.205 Q 119.017 3.806 118.945 5.567 A 29.444 29.444 0 0 1 118.747 7.938 Q 118.595 9.178 118.337 10.545 A 49.257 49.257 0 0 1 118.262 10.938 A 89.447 89.447 0 0 1 117.59 14.044 A 116.087 116.087 0 0 1 116.748 17.407 A 200.284 200.284 0 0 1 115.759 20.99 A 236.117 236.117 0 0 1 114.648 24.756 A 1334.828 1334.828 0 0 1 113.141 29.321 Q 111.035 35.657 109.863 38.916 A 1071.317 1071.317 0 0 1 108.198 43.459 Q 105.316 51.259 104.245 53.676 A 15.235 15.235 0 0 1 103.955 54.297 Q 104.516 53.624 105.334 52.579 A 154.171 154.171 0 0 0 105.859 51.904 A 1156.708 1156.708 0 0 1 108.953 47.859 Q 114.649 40.447 116.547 38.296 A 19.161 19.161 0 0 1 116.846 37.964 A 64.201 64.201 0 0 1 118.096 36.647 Q 119.361 35.355 120.345 34.527 A 18.525 18.525 0 0 1 120.41 34.473 Q 123.486 31.787 128.223 31.787 Q 132.08 31.787 134.424 34.375 A 9.299 9.299 0 0 1 135.926 36.643 A 7.53 7.53 0 0 1 136.621 39.82 A 22.857 22.857 0 0 1 136.456 42.627 A 17.303 17.303 0 0 1 135.962 45.142 A 39.722 39.722 0 0 1 134.589 49.19 A 44.514 44.514 0 0 1 134.277 49.951 A 124.209 124.209 0 0 1 132.629 53.696 A 139.431 139.431 0 0 1 132.031 54.981 L 129.59 60.108 A 75.318 75.318 0 0 0 128.095 63.739 Q 126.833 67.068 126.399 69.426 A 12.334 12.334 0 0 0 126.172 71.631 Q 126.172 74.268 128.32 74.268 A 8.28 8.28 0 0 0 130.911 73.871 A 7.54 7.54 0 0 0 132.056 73.389 Q 133.387 72.694 133.972 72.548 A 1.103 1.103 0 0 1 134.229 72.51 Q 135.042 72.51 135.21 73.156 A 1.511 1.511 0 0 1 135.254 73.535 A 7.82 7.82 0 0 1 132.833 79.206 A 12.594 12.594 0 0 1 130.859 80.811 Q 128.786 82.182 126.964 82.614 A 7.023 7.023 0 0 1 125.342 82.813 A 20.021 20.021 0 0 1 123.662 82.746 Q 122.876 82.68 122.2 82.547 A 9.289 9.289 0 0 1 121.216 82.3 A 7.574 7.574 0 0 1 118.311 80.615 Q 115.65 78.18 115.447 73.622 A 17.263 17.263 0 0 1 115.43 72.852 Q 115.43 67.449 118.894 59.331 A 74.503 74.503 0 0 1 119.043 58.985 L 124.316 47.754 Q 125.583 45.139 125.79 43.447 A 5.162 5.162 0 0 0 125.83 42.822 Q 125.83 41.042 123.885 41.016 A 4.345 4.345 0 0 0 123.828 41.016 A 3.305 3.305 0 0 0 122.365 41.452 Q 119.545 42.906 114.209 49.219 Z M 0 107.324 Q 0 105.86 1.904 105.176 A 28.506 28.506 0 0 0 10.388 99.763 Q 17.169 93.745 23.949 82.317 A 155.125 155.125 0 0 0 29.053 72.949 Q 39.697 51.856 45.752 28.516 A 140.541 140.541 0 0 0 46.799 24.222 Q 47.682 20.311 47.986 17.641 A 22.058 22.058 0 0 0 48.145 15.186 A 5.06 5.06 0 0 0 48.123 14.691 Q 48.074 14.204 47.922 13.95 A 0.515 0.515 0 0 0 47.461 13.672 A 11.503 11.503 0 0 0 43.158 14.611 Q 37.972 16.716 31.152 23.535 Q 30.176 24.512 28.98 24.512 A 5.933 5.933 0 0 1 26.636 24.024 Q 25.488 23.535 24.561 22.754 Q 23.321 21.79 22.781 20.803 A 3.178 3.178 0 0 1 22.363 19.263 A 5.393 5.393 0 0 1 23.417 16.062 A 6.615 6.615 0 0 1 23.486 15.967 A 12.189 12.189 0 0 1 24.805 14.478 Q 25.467 13.837 26.279 13.215 A 20.227 20.227 0 0 1 26.514 13.037 Q 28.418 11.621 30.859 10.425 Q 33.301 9.229 35.986 8.301 A 60.103 60.103 0 0 1 38.655 7.468 Q 41.496 6.658 43.497 6.46 A 12.308 12.308 0 0 1 44.702 6.397 Q 47.325 6.397 49.388 6.667 A 23.903 23.903 0 0 1 50.049 6.763 Q 52.344 7.129 54.443 8.008 A 12.5 12.5 0 0 1 56.665 9.226 Q 57.87 10.071 58.567 11.108 A 5.604 5.604 0 0 1 59.522 14.307 A 35.592 35.592 0 0 1 59.235 18.515 Q 58.374 25.647 54.932 37.695 A 205.88 205.88 0 0 1 42.139 70.947 A 154.629 154.629 0 0 1 34.874 83.976 Q 26.746 96.927 18.018 103.809 A 34.962 34.962 0 0 1 13.287 106.992 Q 10.6 108.477 8.023 109.138 A 16.332 16.332 0 0 1 3.955 109.668 Q 2.378 109.668 1.349 109.139 A 3.27 3.27 0 0 1 0.342 108.35 A 1.619 1.619 0 0 1 0 107.343 A 1.994 1.994 0 0 1 0 107.324 Z M 579.053 58.203 L 581.69 52.344 A 120.622 120.622 0 0 0 583.06 49.189 Q 586.571 40.752 585.449 38.965 A 3.643 3.643 0 0 0 584.925 38.327 Q 584.355 37.764 583.408 37.201 A 13.044 13.044 0 0 0 583.252 37.11 A 1.125 1.125 0 0 1 582.715 36.364 A 1.936 1.936 0 0 1 582.666 35.913 A 2.148 2.148 0 0 1 582.957 34.848 A 3.157 3.157 0 0 1 583.374 34.278 A 5.753 5.753 0 0 1 584.302 33.46 A 7.639 7.639 0 0 1 585.205 32.91 A 11.892 11.892 0 0 1 588.158 31.952 A 10.338 10.338 0 0 1 589.99 31.787 Q 592.112 31.787 593.331 32.19 A 4.441 4.441 0 0 1 593.628 32.3 A 7.232 7.232 0 0 1 594.693 32.84 A 5.328 5.328 0 0 1 595.654 33.594 A 6.094 6.094 0 0 1 596.66 34.891 A 4.528 4.528 0 0 1 597.266 37.158 A 14.255 14.255 0 0 1 597.126 39.091 Q 596.993 40.064 596.732 41.13 A 24.421 24.421 0 0 1 596.631 41.528 A 53.123 53.123 0 0 1 595.898 44.049 A 70.284 70.284 0 0 1 594.971 46.778 Q 593.945 49.61 592.725 52.637 Q 589.972 59.099 588.686 61.976 A 102.349 102.349 0 0 1 588.184 63.086 L 586.377 66.846 A 38.825 38.825 0 0 0 585.787 68.224 Q 584.863 70.514 584.863 71.582 Q 584.863 72.949 585.303 73.511 Q 585.742 74.072 586.89 74.072 A 3.052 3.052 0 0 0 587.802 73.921 Q 588.58 73.677 589.492 73.04 A 10.216 10.216 0 0 0 589.551 72.998 Q 590.727 72.163 592.081 70.886 A 38.16 38.16 0 0 0 592.871 70.117 A 51.388 51.388 0 0 0 594.714 68.17 A 67.667 67.667 0 0 0 596.631 65.943 A 106.066 106.066 0 0 0 600.44 61.035 Q 603.458 56.93 605.149 54.152 A 39.654 39.654 0 0 0 605.811 53.028 Q 616.162 34.717 616.846 33.887 A 8.135 8.135 0 0 1 617.669 32.932 Q 618.125 32.485 618.587 32.212 A 2.843 2.843 0 0 1 620.044 31.787 Q 621.68 31.787 622.9 32.153 A 6.982 6.982 0 0 1 624.166 32.666 A 5.705 5.705 0 0 1 625 33.203 A 6.151 
6.151 0 0 1 625.657 33.757 Q 626.917 34.994 626.318 36.231 Q 614.484 60.919 613.489 67.395 A 10.474 10.474 0 0 0 613.477 67.481 A 84.696 84.696 0 0 0 613.376 68.436 Q 613.258 69.62 613.237 70.26 A 7.722 7.722 0 0 0 613.232 70.508 Q 613.232 74.219 615.479 74.219 A 9.589 9.589 0 0 0 616.95 74.112 Q 617.734 73.991 618.383 73.729 A 5.088 5.088 0 0 0 618.945 73.462 A 16.698 16.698 0 0 1 619.427 73.205 Q 620.404 72.705 620.801 72.705 A 1.617 1.617 0 0 1 621.245 72.761 Q 621.744 72.904 621.876 73.412 A 1.655 1.655 0 0 1 621.924 73.828 A 7.79 7.79 0 0 1 619.512 79.482 A 12.304 12.304 0 0 1 617.725 80.957 A 11.344 11.344 0 0 1 612.704 82.724 A 14.43 14.43 0 0 1 611.084 82.813 A 10.718 10.718 0 0 1 609.274 82.67 Q 607.44 82.355 606.299 81.348 Q 603.32 78.711 603.32 74.903 A 17.325 17.325 0 0 1 603.606 71.973 Q 604.137 68.916 605.655 64.61 A 101.96 101.96 0 0 1 607.373 60.108 A 568.905 568.905 0 0 1 604.095 64.494 Q 599.144 71.048 596.826 73.609 A 79.899 79.899 0 0 1 594.837 75.732 Q 593.932 76.662 593.111 77.431 A 33.552 33.552 0 0 1 591.553 78.809 Q 586.67 82.813 582.715 82.813 A 10.684 10.684 0 0 1 579.558 82.378 Q 576.252 81.357 574.802 77.945 A 10.73 10.73 0 0 1 574.658 77.588 A 9.486 9.486 0 0 1 574.184 75.629 A 12.735 12.735 0 0 1 574.072 73.902 A 14.42 14.42 0 0 1 574.228 71.849 Q 574.404 70.625 574.78 69.263 A 46.402 46.402 0 0 1 575.827 65.973 A 55.634 55.634 0 0 1 576.611 63.916 Q 577.734 61.133 579.053 58.203 Z M 217.334 49.219 L 213.184 54.199 L 205.176 64.404 A 270.99 270.99 0 0 0 203.836 66.977 Q 202.207 70.148 201.086 72.568 A 90.55 90.55 0 0 0 200.732 73.34 L 198.096 79.004 Q 197.283 80.668 196.639 81.55 A 5.581 5.581 0 0 1 196.314 81.958 A 2.492 2.492 0 0 1 194.692 82.787 A 3.534 3.534 0 0 1 194.263 82.813 A 6.829 6.829 0 0 1 191.773 82.349 A 7.887 7.887 0 0 1 190.401 81.664 A 6.672 6.672 0 0 1 189.697 81.153 A 6.578 6.578 0 0 1 188.719 80.147 Q 187.842 79.01 187.842 77.735 A 1.866 1.866 0 0 1 187.899 77.322 Q 188.057 76.644 188.656 75.387 A 30.464 30.464 0 0 1 188.916 74.854 L 190.772 70.899 A 53.209 53.209 0 0 0 191.229 69.959 Q 191.943 68.457 192.822 66.406 L 195.557 59.717 A 247.81 247.81 0 0 0 197.515 54.674 Q 201.318 44.525 201.318 41.113 A 5.448 5.448 0 0 0 201.175 39.824 A 3.436 3.436 0 0 0 199.854 37.793 L 198.877 37.11 A 1.05 1.05 0 0 1 198.492 36.592 Q 198.425 36.407 198.402 36.177 A 2.585 2.585 0 0 1 198.389 35.913 A 2.292 2.292 0 0 1 198.697 34.779 A 3.223 3.223 0 0 1 199.048 34.278 A 5.346 5.346 0 0 1 199.963 33.429 A 7.077 7.077 0 0 1 200.781 32.91 A 10.369 10.369 0 0 1 203.33 31.987 A 8.904 8.904 0 0 1 205.2 31.787 A 16.35 16.35 0 0 1 206.461 31.833 Q 207.794 31.936 208.643 32.276 A 6.479 6.479 0 0 1 209.955 32.976 A 5.493 5.493 0 0 1 210.693 33.594 A 7.335 7.335 0 0 1 211.646 34.676 Q 212.5 35.883 212.5 37.158 Q 212.5 39.014 212.036 40.894 A 36.071 36.071 0 0 1 210.952 44.461 A 39.525 39.525 0 0 1 210.864 44.702 Q 210.156 46.631 209.375 48.486 Q 208.594 50.342 207.959 51.709 L 206.982 53.809 A 29.17 29.17 0 0 0 206.921 53.932 Q 206.611 54.559 206.784 54.302 A 2.209 2.209 0 0 0 206.787 54.297 Q 211.215 48.154 213.166 45.596 A 61.379 61.379 0 0 1 213.916 44.629 L 217.334 40.528 Q 220.226 37.147 222.165 35.529 A 12.098 12.098 0 0 1 223.242 34.717 A 31.18 31.18 0 0 1 225.299 33.435 Q 227.36 32.269 228.897 31.928 A 5.477 5.477 0 0 1 230.078 31.787 Q 232.033 31.787 233.507 32.179 A 8.414 8.414 0 0 1 234.277 32.422 A 8.952 8.952 0 0 1 237.096 34.084 A 8.601 8.601 0 0 1 237.256 34.229 Q 239.941 36.719 239.941 40.576 A 18.947 18.947 0 0 1 239.272 45.468 A 24.657 24.657 0 0 1 238.184 48.633 A 195.089 195.089 0 0 1 237.334 50.633 Q 236.102 53.485 235.132 55.445 A 120.615 120.615 0 0 0 232.666 60.742 A 83.069 83.069 0 0 0 231.107 64.431 Q 229.052 69.673 229.005 72.478 A 7.757 7.757 0 0 0 229.004 72.608 A 1.384 1.384 0 0 0 229.793 73.927 Q 230.381 74.234 231.408 74.264 A 7.823 7.823 0 0 0 231.641 74.268 A 8.28 8.28 0 0 0 234.231 73.871 A 7.54 7.54 0 0 0 235.376 73.389 Q 236.708 72.694 237.292 72.548 A 1.103 1.103 0 0 1 237.549 72.51 Q 238.363 72.51 238.531 73.156 A 1.511 1.511 0 0 1 238.574 73.535 A 7.762 7.762 0 0 1 236.179 79.154 A 12.631 12.631 0 0 1 234.131 80.811 Q 232.044 82.214 230.196 82.633 A 6.914 6.914 0 0 1 228.662 82.813 A 19.116 19.116 0 0 1 226.983 82.743 Q 226.152 82.67 225.445 82.519 A 8.843 8.843 0 0 1 224.536 82.276 Q 222.9 81.738 221.631 80.567 A 8.454 8.454 0 0 1 218.978 75.787 A 12.502 12.502 0 0 1 218.75 73.34 A 23.399 23.399 0 0 1 219.171 69.111 Q 219.975 64.755 222.315 59.18 Q 224.902 53.369 225.977 51.221 L 227.637 47.754 Q 228.903 45.139 229.11 43.447 A 5.162 5.162 0 0 0 229.15 42.822 A 1.673 1.673 0 0 0 228.901 41.889 Q 228.472 41.23 227.303 41.068 A 6.142 6.142 0 0 0 226.465 41.016 Q 225.059 41.016 222.557 43.523 A 27.345 27.345 0 0 0 222.168 43.921 A 160.414 160.414 0 0 0 219.873 46.365 Q 218.834 47.496 217.925 48.536 A 94.555 94.555 0 0 0 217.334 49.219 Z M 451.465 49.219 L 447.315 54.199 L 439.307 64.404 A 270.99 270.99 0 0 0 437.967 66.977 Q 436.338 70.148 435.217 72.568 A 90.55 90.55 0 0 0 434.863 73.34 L 432.227 79.004 Q 431.414 80.668 430.77 81.55 A 5.581 5.581 0 0 1 430.444 81.958 A 2.492 2.492 0 0 1 428.823 82.787 A 3.534 3.534 0 0 1 428.394 82.813 A 6.829 6.829 0 0 1 425.903 82.349 A 7.887 7.887 0 0 1 424.532 81.664 A 6.672 6.672 0 0 1 423.828 81.153 A 6.578 6.578 0 0 1 422.85 80.147 Q 421.973 79.01 421.973 77.735 A 1.866 1.866 0 0 1 422.03 77.322 Q 422.188 76.644 422.786 75.387 A 30.464 30.464 0 0 1 423.047 74.854 L 424.902 70.899 A 53.209 53.209 0 0 0 425.36 69.959 Q 426.074 68.457 426.953 66.406 L 429.688 59.717 A 247.81 247.81 0 0 0 431.646 54.674 Q 435.449 44.525 435.449 41.113 A 5.448 5.448 0 0 0 435.306 39.824 A 3.436 3.436 0 0 0 433.984 37.793 L 433.008 37.11 A 1.05 1.05 0 0 1 432.623 36.592 Q 432.556 36.407 432.532 36.177 A 2.585 2.585 0 0 1 432.52 35.913 A 2.292 2.292 0 0 1 432.828 34.779 A 3.223 3.223 0 0 1 433.179 34.278 A 5.346 5.346 0 0 1 434.094 33.429 A 7.077 7.077 0 0 1 434.912 32.91 A 10.369 10.369 0 0 1 437.461 31.987 A 8.904 8.904 0 0 1 439.331 31.787 A 16.35 16.35 0 0 1 440.592 31.833 Q 441.925 31.936 442.773 32.276 A 6.479 6.479 0 0 1 444.085 32.976 A 5.493 5.493 0 0 1 444.824 33.594 A 7.335 7.335 0 0 1 445.777 34.676 Q 446.631 35.883 446.631 37.158 Q 446.631 39.014 446.167 40.894 A 36.071 36.071 0 0 1 445.083 44.461 A 39.525 39.525 0 0 1 444.995 44.702 Q 444.287 46.631 443.506 48.486 Q 442.725 50.342 442.09 51.709 L 441.113 53.809 A 29.17 29.17 0 0 0 441.052 53.932 Q 440.742 54.559 440.914 54.302 A 2.209 2.209 0 0 0 440.918 54.297 Q 445.346 48.154 447.297 45.596 A 61.379 61.379 0 0 1 448.047 44.629 L 451.465 40.528 Q 454.357 37.147 456.296 35.529 A 12.098 12.098 0 0 1 457.373 34.717 A 31.18 31.18 0 0 1 459.43 33.435 Q 461.491 32.269 463.028 31.928 A 5.477 5.477 0 0 1 464.209 31.787 Q 466.164 31.787 467.638 32.179 A 8.414 8.414 0 0 1 468.408 32.422 A 8.952 8.952 0 0 1 471.226 34.084 A 8.601 8.601 0 0 1 471.387 34.229 Q 474.072 36.719 474.072 40.576 A 18.947 18.947 0 0 1 473.403 45.468 A 24.657 24.657 0 0 1 472.315 48.633 A 195.089 195.089 0 0 1 471.465 50.633 Q 470.233 53.485 469.263 55.445 A 120.615 120.615 0 0 0 466.797 60.742 A 83.069 83.069 0 0 0 465.238 64.431 Q 463.183 69.673 463.136 72.478 A 7.757 7.757 0 0 0 463.135 72.608 A 1.384 1.384 0 0 0 463.923 73.927 Q 464.512 74.234 465.539 74.264 A 7.823 7.823 0 0 0 465.772 74.268 A 8.28 8.28 0 0 0 468.362 73.871 A 7.54 7.54 0 0 0 469.507 73.389 Q 470.839 72.694 471.423 72.548 A 1.103 1.103 0 0 1 471.68 72.51 Q 472.493 72.51 472.661 73.156 A 1.511 1.511 0 0 1 472.705 73.535 A 7.762 7.762 0 0 1 470.31 79.154 A 12.631 12.631 0 0 1 468.262 80.811 Q 466.174 82.214 464.327 82.633 A 6.914 6.914 0 0 1 462.793 82.813 A 19.116 19.116 0 0 1 461.114 82.743 Q 460.283 82.67 459.576 82.519 A 8.843 8.843 0 0 1 458.667 82.276 Q 457.031 81.738 455.762 80.567 A 8.454 8.454 0 0 1 453.109 75.787 A 12.502 12.502 0 0 1 452.881 73.34 A 23.399 23.399 0 0 1 453.302 69.111 Q 454.106 64.755 456.445 59.18 Q 459.033 53.369 460.107 51.221 L 461.768 47.754 Q 463.034 45.139 463.241 43.447 A 5.162 5.162 0 0 0 463.281 42.822 A 1.673 1.673 0 0 0 463.032 41.889 Q 462.603 41.23 461.434 41.068 A 6.142 6.142 0 0 0 460.596 41.016 Q 459.19 41.016 456.688 43.523 A 27.345 27.345 0 0 0 456.299 43.921 A 160.414 160.414 0 0 0 454.004 46.365 Q 452.965 47.496 452.056 48.536 A 94.555 94.555 0 0 0 451.465 49.219 Z M 496.24 65.039 L 493.457 61.133 Q 489.612 56.006 488.29 51.405 A 16.904 16.904 0 0 1 487.598 46.729 A 12.561 12.561 0 0 1 490.207 39.102 A 18.035 18.035 0 0 1 492.236 36.817 A 17.999 17.999 0 0 1 502.757 31.966 A 24.555 24.555 0 0 1 505.762 31.787 A 23.588 23.588 0 0 1 510.259 32.19 Q 512.864 32.696 514.901 33.839 A 12.474 12.474 0 0 1 517.041 35.352 A 11.037 11.037 0 0 1 518.982 37.505 A 7.787 7.787 0 0 1 520.361 41.944 Q 520.361 45.801 517.432 48.096 A 8.927 8.927 0 0 1 515.881 49.078 Q 514.567 49.721 513.253 49.721 A 5.47 5.47 0 0 1 512.158 49.61 A 2.942 2.942 0 0 1 511.107 49.179 A 2.74 2.74 0 0 1 510.352 48.413 A 2.265 2.265 0 0 1 509.959 47.131 Q 509.959 46.859 510.02 46.57 A 3.361 3.361 0 0 1 510.107 46.24 Q 510.498 45.02 510.498 43.701 A 6.24 6.24 0 0 0 510.235 41.87 A 5.709 5.709 0 0 0 510.01 41.26 A 5.853 5.853 0 0 0 509.085 39.768 A 5.379 5.379 0 0 0 508.691 39.356 Q 507.085 37.841 505.328 37.75 A 4.356 4.356 0 0 0 505.103 37.744 Q 503.223 37.744 502.002 38.159 A 6.683 6.683 0 0 0 500.151 39.12 A 6.271 6.271 0 0 0 499.854 39.356 A 5.835 5.835 0 0 0 498.34 41.519 A 5.854 5.854 0 0 0 497.949 43.677 Q 497.949 46.24 498.828 48.096 A 24.917 24.917 0 0 0 500.38 50.879 A 28.912 28.912 0 0 0 501.001 51.807 Q 502.295 53.662 503.809 55.567 A 38.15 38.15 0 0 1 506.592 59.57 A 27.523 27.523 0 0 1 508.214 62.536 Q 509.668 65.669 509.668 68.237 A 14.787 14.787 0 0 1 509.42 71.02 Q 509.045 72.975 508.106 74.487 Q 506.543 77.002 504.053 78.809 A 19.489 19.489 0 0 1 492.139 82.764 Q 485.84 82.764 482.178 79.736 A 9.437 9.437 0 0 1 480.363 77.747 A 7.099 7.099 0 0 1 479.15 73.731 A 6.096 6.096 0 0 1 479.81 70.923 A 7.829 7.829 0 0 1 
480.798 69.419 A 6.797 6.797 0 0 1 481.445 68.75 A 8.292 8.292 0 0 1 482.945 67.627 Q 484.303 66.846 485.742 66.846 Q 487.3 66.846 487.615 68.119 A 3.036 3.036 0 0 1 487.695 68.848 A 11.919 11.919 0 0 0 487.962 71.461 Q 488.329 73.093 489.202 74.264 A 6.323 6.323 0 0 0 491.065 75.928 A 5.115 5.115 0 0 0 492.627 76.557 A 4.64 4.64 0 0 0 493.604 76.66 A 9.916 9.916 0 0 0 494.592 76.614 Q 495.292 76.544 495.85 76.367 A 5.152 5.152 0 0 0 497.559 75.44 Q 499.316 74.024 499.316 72.07 Q 499.316 70.117 498.438 68.482 A 25.996 25.996 0 0 0 497.449 66.803 A 34.373 34.373 0 0 0 496.24 65.039 Z M 408.643 69.336 A 9.417 9.417 0 0 0 408.764 70.92 Q 409.248 73.746 411.674 73.826 A 4.335 4.335 0 0 0 411.816 73.828 A 11.641 11.641 0 0 0 413.351 73.733 Q 414.138 73.628 414.797 73.408 A 5.874 5.874 0 0 0 415.454 73.145 Q 416.895 72.461 417.383 72.461 A 1.405 1.405 0 0 1 417.795 72.516 Q 418.248 72.655 418.366 73.144 A 1.664 1.664 0 0 1 418.408 73.535 Q 418.408 77.643 414.203 80.629 A 16.175 16.175 0 0 1 414.014 80.762 A 12.973 12.973 0 0 1 411.305 82.201 Q 407.972 83.468 404.541 82.324 A 7.32 7.32 0 0 1 400.775 79.279 A 10.799 10.799 0 0 1 399.854 77.49 Q 399.23 75.869 399.137 74.495 A 7.01 7.01 0 0 1 399.121 74.024 A 29.698 29.698 0 0 1 399.331 70.565 A 35.831 35.831 0 0 1 399.609 68.653 Q 396.186 75.647 391.514 79.366 A 19.853 19.853 0 0 1 388.33 81.445 A 12.419 12.419 0 0 1 382.617 82.813 Q 379.59 82.813 377.368 81.568 A 11.501 11.501 0 0 1 373.682 78.262 A 13.259 13.259 0 0 1 373.584 78.125 Q 370.678 73.923 370.678 67.757 A 27.364 27.364 0 0 1 370.703 66.602 A 34.907 34.907 0 0 1 374.054 52.967 A 42.757 42.757 0 0 1 375.83 49.561 A 40.874 40.874 0 0 1 383.814 39.462 A 37.821 37.821 0 0 1 387.061 36.817 A 32.712 32.712 0 0 1 391.42 34.058 Q 393.859 32.789 396.174 32.23 A 15.21 15.21 0 0 1 399.756 31.787 A 10.571 10.571 0 0 1 407.968 35.504 A 15.262 15.262 0 0 1 409.277 37.207 Q 412.477 32.06 414.972 31.801 A 2.54 2.54 0 0 1 415.234 31.787 A 12.097 12.097 0 0 1 416.766 31.878 Q 417.524 31.975 418.143 32.176 A 4.619 4.619 0 0 1 419.434 32.813 A 10.504 10.504 0 0 1 420.244 33.461 Q 421.514 34.593 421.514 35.546 A 1.437 1.437 0 0 1 421.338 36.231 Q 409.082 61.328 408.74 67.481 A 16.165 16.165 0 0 0 408.65 68.824 A 18.768 18.768 0 0 0 408.643 69.336 Z M 144.287 65.235 Q 144.482 60.986 145.703 57.105 Q 146.924 53.223 148.975 49.585 A 43.956 43.956 0 0 1 153.784 42.7 Q 156.543 39.453 159.766 37.012 A 29.291 29.291 0 0 1 165.353 33.678 A 20.746 20.746 0 0 1 173.877 31.787 A 15.492 15.492 0 0 1 178.133 32.332 A 10.152 10.152 0 0 1 185.01 38.672 A 11.637 11.637 0 0 1 185.736 41.262 Q 185.94 42.502 185.94 43.911 A 19.826 19.826 0 0 1 185.938 44.214 A 15.883 15.883 0 0 1 185.301 48.515 A 14.331 14.331 0 0 1 184.717 50.122 A 17.168 17.168 0 0 1 181.47 55.054 A 22.798 22.798 0 0 1 177.918 58.125 A 26.708 26.708 0 0 1 176.538 59.033 A 33.496 33.496 0 0 1 170.94 61.778 A 37.352 37.352 0 0 1 170.313 62.012 A 45.43 45.43 0 0 1 157.431 64.49 A 51.98 51.98 0 0 1 155.469 64.551 A 4.356 4.356 0 0 0 155.371 64.99 Q 155.26 65.619 155.225 66.602 A 9.716 9.716 0 0 0 155.219 66.948 Q 155.219 68.179 155.518 69.653 A 9.387 9.387 0 0 0 156.177 71.707 A 8.175 8.175 0 0 0 156.69 72.656 A 6.45 6.45 0 0 0 158.191 74.413 Q 159.666 75.586 161.768 75.586 A 19.981 19.981 0 0 0 170.609 73.478 A 24.991 24.991 0 0 0 172.803 72.266 A 19.523 19.523 0 0 0 174.309 71.287 Q 175.221 70.629 175.903 69.946 A 7.214 7.214 0 0 1 176.482 69.423 Q 177.319 68.75 177.979 68.75 A 1.467 1.467 0 0 1 178.91 69.092 Q 179.13 69.266 179.331 69.531 A 3.631 3.631 0 0 1 179.517 69.8 A 4.334 4.334 0 0 1 180.174 72.045 A 5.199 5.199 0 0 1 180.176 72.168 A 7.67 7.67 0 0 1 179.744 74.777 A 6.889 6.889 0 0 1 178.711 76.66 A 19.419 19.419 0 0 1 170.842 81.346 Q 167.762 82.349 164.014 82.666 A 42.87 42.87 0 0 1 160.4 82.813 A 19.449 19.449 0 0 1 155.32 82.183 A 14.292 14.292 0 0 1 148.877 78.516 Q 144.271 73.909 144.271 66.174 A 26.95 26.95 0 0 1 144.287 65.235 Z M 637.988 37.793 L 637.012 37.11 A 1.049 1.049 0 0 1 636.693 36.681 Q 636.619 36.506 636.582 36.285 A 2.766 2.766 0 0 1 636.548 35.913 Q 636.531 35.306 636.846 34.736 A 3.137 3.137 0 0 1 637.158 34.278 Q 637.793 33.496 638.818 32.91 A 9.374 9.374 0 0 1 641.763 31.897 A 8.661 8.661 0 0 1 643.14 31.787 A 16.35 16.35 0 0 1 644.433 31.835 Q 645.75 31.94 646.606 32.276 A 6.923 6.923 0 0 1 648.02 33.019 A 5.995 5.995 0 0 1 648.731 33.594 Q 650.157 34.946 650.501 36.413 A 4.121 4.121 0 0 1 650.61 37.305 Q 650.635 39.258 650.171 41.26 Q 649.707 43.262 649.072 45.191 Q 648.438 47.119 647.803 48.853 A 54.064 54.064 0 0 0 647.513 49.663 Q 647.119 50.794 646.973 51.416 Q 646.582 53.125 646.68 53.565 Q 647.852 52.539 648.096 51.563 L 650 47.949 Q 655.552 37.956 660.88 33.864 A 17.63 17.63 0 0 1 662.402 32.813 A 7.332 7.332 0 0 1 664.739 31.957 A 10.038 10.038 0 0 1 666.626 31.787 A 5.687 5.687 0 0 1 668.537 32.096 A 4.878 4.878 0 0 1 670.606 33.521 A 6.651 6.651 0 0 1 671.747 35.316 A 5.729 5.729 0 0 1 672.192 37.354 A 19.738 19.738 0 0 1 672.204 37.951 Q 672.211 39.299 672.017 40.324 A 7.616 7.616 0 0 1 671.899 40.845 A 9.994 9.994 0 0 1 670.801 43.457 A 7.931 7.931 0 0 1 669.897 44.717 Q 669.3 45.385 668.628 45.751 A 3.574 3.574 0 0 1 666.895 46.192 A 1.772 1.772 0 0 1 665.859 45.855 A 2.273 2.273 0 0 1 665.723 45.752 L 664.648 44.824 Q 663.561 43.869 662.529 43.558 A 3.391 3.391 0 0 0 661.548 43.408 A 2.969 2.969 0 0 0 660.502 43.619 Q 659.616 43.953 658.556 44.821 A 14.337 14.337 0 0 0 657.935 45.361 Q 656.109 47.04 654.158 49.548 A 52.132 52.132 0 0 0 653.516 50.391 A 92.932 92.932 0 0 0 641.539 71.671 A 103.486 103.486 0 0 0 640.918 73.242 L 638.77 78.906 Q 637.94 81.006 637.305 81.909 A 2.061 2.061 0 0 1 635.799 82.791 A 3.071 3.071 0 0 1 635.425 82.813 Q 634.18 82.813 632.935 82.349 A 9.087 9.087 0 0 1 631.234 81.512 A 8.084 8.084 0 0 1 630.713 81.153 Q 629.736 80.42 629.15 79.517 Q 628.565 78.613 628.516 77.954 Q 628.477 77.431 628.669 76.723 A 6.992 6.992 0 0 1 628.784 76.343 A 33.431 33.431 0 0 1 629.053 75.57 Q 629.178 75.224 629.324 74.838 A 70.177 70.177 0 0 1 629.639 74.024 A 347.477 347.477 0 0 0 633.52 64.071 Q 638.575 50.437 639.427 43.603 A 20.328 20.328 0 0 0 639.6 41.113 Q 639.499 39.504 638.776 38.539 A 3.184 3.184 0 0 0 637.988 37.793 Z M 525.871 75.738 A 12.721 12.721 0 0 0 528.32 79.004 A 12.737 12.737 0 0 0 533.179 81.885 A 17.694 17.694 0 0 0 536.282 82.595 A 23.77 23.77 0 0 0 539.575 82.813 A 18.105 18.105 0 0 0 542.284 82.607 A 21.072 21.072 0 0 0 546.875 81.348 A 28.097 28.097 0 0 0 553.156 77.861 A 33.01 33.01 0 0 0 559.668 71.436 A 40.177 40.177 0 0 0 567.188 56.104 Q 568.577 50.485 568.135 45.895 A 19.194 19.194 0 0 0 566.895 40.625 A 18.45 18.45 0 0 0 566.44 39.589 Q 562.722 31.787 553.272 31.787 A 21.796 21.796 0 0 0 544.587 33.615 A 28.669 28.669 0 0 0 538.477 37.256 Q 535.205 39.795 532.495 43.213 A 40.907 40.907 0 0 0 527.856 50.537 A 40.379 40.379 0 0 0 524.878 58.643 A 34.488 34.488 0 0 0 524.874 58.658 Q 523.828 62.85 523.877 66.944 Q 523.901 68.994 524.207 70.77 A 16.848 16.848 0 0 0 525.098 74.048 A 15.872 15.872 0 0 0 525.871 75.738 Z M 64.6 57.031 L 67.188 50.879 A 107.176 107.176 0 0 0 68.15 48.462 Q 70.02 43.582 70.02 41.797 Q 70.02 39.6 69.556 38.892 A 5.126 5.126 0 0 0 69.138 38.335 Q 68.858 38.014 68.555 37.793 L 67.578 37.11 A 1.05 1.05 0 0 1 67.194 36.592 Q 67.126 36.407 67.103 36.177 A 2.585 2.585 0 0 1 67.09 35.913 A 2.292 2.292 0 0 1 67.398 34.779 A 3.223 3.223 0 0 1 67.749 34.278 A 5.346 5.346 0 0 1 68.664 33.429 A 7.077 7.077 0 0 1 69.482 32.91 A 10.091 10.091 0 0 1 72.515 31.945 A 13.363 13.363 0 0 1 74.609 31.787 A 20.52 20.52 0 0 1 77.026 31.917 Q 81.787 32.485 81.787 35.547 A 20.459 20.459 0 0 1 81.363 39.553 Q 80.801 42.365 79.492 45.581 Q 77.439 50.626 75.933 53.932 A 108.276 108.276 0 0 1 75.586 54.688 L 72.656 61.426 A 79.16 79.16 0 0 0 71.284 64.777 Q 69.434 69.64 69.434 72.119 A 3.093 3.093 0 0 0 69.54 72.97 Q 69.912 74.268 71.582 74.268 Q 73.487 74.268 74.548 73.825 A 3.326 3.326 0 0 0 74.756 73.731 Q 75.809 73.204 76.299 73.194 A 0.92 0.92 0 0 1 76.318 73.194 Q 77.588 73.194 77.588 74.854 A 5.474 5.474 0 0 1 77.118 77.017 Q 76.618 78.186 75.586 79.395 A 9.613 9.613 0 0 1 68.706 82.777 A 13.398 13.398 0 0 1 67.725 82.813 A 10.746 10.746 0 0 1 64.694 82.413 A 7.289 7.289 0 0 1 59.961 78.223 Q 59.241 76.737 59.185 74.671 A 13.021 13.021 0 0 1 59.18 74.317 Q 59.18 72.17 59.885 69.574 A 26.326 26.326 0 0 1 59.985 69.214 A 65.527 65.527 0 0 1 61.145 65.59 A 79.476 79.476 0 0 1 61.987 63.306 A 132.213 132.213 0 0 1 64.6 57.031 Z M 537.647 55.322 A 47.256 47.256 0 0 0 535.327 62.744 Q 534.473 66.553 534.522 69.946 Q 534.553 72.155 534.988 73.743 A 7.754 7.754 0 0 0 535.571 75.269 Q 536.446 76.954 538.271 77.167 A 4.726 4.726 0 0 0 538.818 77.197 Q 541.065 77.197 543.237 75.659 A 18.584 18.584 0 0 0 545.512 73.743 A 25.319 25.319 0 0 0 547.461 71.582 A 35.658 35.658 0 0 0 549.87 68.198 A 44.513 44.513 0 0 0 551.318 65.723 A 55.812 55.812 0 0 0 554.492 58.789 A 52.451 52.451 0 0 0 556.25 53.312 Q 557.435 48.712 557.373 44.824 A 20.343 20.343 0 0 0 557.26 42.591 Q 556.875 39.121 555.176 37.988 Q 554.525 37.555 553.487 37.442 A 7.213 7.213 0 0 0 552.71 37.403 A 4.323 4.323 0 0 0 551.401 37.622 Q 550.323 37.964 549.072 38.843 A 18.197 18.197 0 0 0 547.086 40.473 Q 546.16 41.342 545.235 42.414 A 30.856 30.856 0 0 0 544.971 42.725 A 36.362 36.362 0 0 0 542.71 45.734 A 47.073 47.073 0 0 0 541.016 48.438 A 53.969 53.969 0 0 0 537.647 55.322 Z M 381.543 69.531 A 13.668 13.668 0 0 0 381.675 71.523 Q 382.035 73.95 383.371 74.854 A 3.367 3.367 0 0 0 385.303 75.391 A 4.588 4.588 0 0 0 387.206 74.926 Q 388.797 74.197 390.696 72.325 A 30.233 30.233 0 0 0 392.383 70.508 A 50.501 50.501 0 0 0 397.322 63.565 Q 399.523 59.888 401.503 55.428 A 99.828 99.828 0 0 0 403.272 51.172 A 69.638 69.638 0 0 0 405.811 43.555 A 7.025 7.025 0 0 0 405.369 41.416 A 5.444 5.444 0 0 0 403.027 38.672 A 3.027 3.027 0 0 0 402.304 38.361 Q 401.596 38.152 400.581 38.136 A 10.793 10.793 0 0 0 400.415 38.135 A 5.903 5.903 0 0 0 398.97
1 38.329 Q 398.299 38.499 397.557 38.818 A 14.141 14.141 0 0 0 396.362 39.404 A 17.898 17.898 0 0 0 393.59 41.296 A 22.766 22.766 0 0 0 391.87 42.871 A 27.756 27.756 0 0 0 389.269 45.933 A 34.195 34.195 0 0 0 387.817 48.071 Q 385.938 51.074 384.522 54.59 Q 381.543 62.11 381.543 69.531 Z M 172.803 38.281 A 8.279 8.279 0 0 0 168.391 39.627 Q 165.604 41.358 162.94 45.313 A 47.406 47.406 0 0 0 158.832 53.064 A 62.062 62.062 0 0 0 156.494 59.668 A 23.729 23.729 0 0 0 170.654 53.223 A 26.268 26.268 0 0 0 173.306 50.311 Q 174.537 48.716 175.24 47.163 A 9.776 9.776 0 0 0 176.172 43.115 A 10.27 10.27 0 0 0 176.043 41.412 Q 175.532 38.388 172.985 38.285 A 4.509 4.509 0 0 0 172.803 38.281 Z M 83.887 22.193 A 8.985 8.985 0 0 0 86.328 20.337 A 8.684 8.684 0 0 0 86.654 19.969 A 9.31 9.31 0 0 0 88.062 17.652 A 6.738 6.738 0 0 0 88.319 16.938 Q 88.528 16.245 88.628 15.424 A 13.484 13.484 0 0 0 88.721 13.794 A 4.166 4.166 0 0 0 87.564 10.911 A 6.787 6.787 0 0 0 86.328 9.863 A 6.463 6.463 0 0 0 84.204 8.887 Q 83.057 8.594 80.981 8.594 Q 79.652 8.594 78.212 9.215 A 11.325 11.325 0 0 0 76.563 10.108 Q 75.342 10.889 74.536 12.134 Q 73.957 13.029 73.794 14.567 A 12.406 12.406 0 0 0 73.731 15.869 A 5.936 5.936 0 0 0 73.8 16.776 Q 74.113 18.805 75.83 20.801 Q 76.807 21.973 78.149 22.608 Q 79.492 23.242 81.006 23.071 Q 82.52 22.901 83.887 22.193 Z" vector-effect="non-scaling-stroke"/></g></svg>