<svg width="850" height="110" viewBox="0 0 240.901 75.2" xmlns="http://www.w3.org/2000/svg">
<g id="svgGroup" stroke-linecap="round" fill-rule="evenodd" font-size="9pt" stroke="#dedddd" 
stroke-width="0.25mm" fill="#131419" style="stroke:#dedddd;stroke-width:0.25mm;fill:#131419"><path d="M 0 68.1 L 4.8 60.1 Q 8.4 63.1 12.9 65 A 23.348 23.348 0 0 0 18.27 66.51 A 32.118 32.118 0 0 0 23.4 66.9 A 27.981 27.981 0 0 0 27.947 66.554 Q 30.37 66.154 32.331 65.293 A 13.701 13.701 0 0 0 34.8 63.9 Q 38.848 61.008 38.995 56.166 A 12.116 12.116 0 0 0 39 55.8 A 11.94 11.94 0 0 0 38.663 52.907 A 9.816 9.816 0 0 0 37.8 50.65 A 8.097 8.097 0 0 0 36.6 48.994 Q 35.33 47.613 33.184 46.271 A 25.81 25.81 0 0 0 33.15 46.25 Q 30.034 44.308 24.265 42.08 A 118.584 118.584 0 0 0 23 41.6 Q 15.8 38.8 11.5 35.95 A 21.931 21.931 0 0 1 8.411 33.502 Q 6.694 31.853 5.638 29.987 A 13.303 13.303 0 0 1 5.35 29.45 Q 3.5 25.8 3.5 20.8 Q 3.5 15.8 6.25 11.75 Q 9 7.7 14.35 5.25 A 25.558 25.558 0 0 1 20.25 3.415 Q 23.493 2.8 27.3 2.8 Q 33.5 2.8 38.45 4.05 Q 43.4 5.3 48.1 7.6 L 44.6 15.7 A 31.496 31.496 0 0 0 40.474 13.681 A 41.686 41.686 0 0 0 36.65 12.35 Q 32.1 11 27.1 11 A 27.187 27.187 0 0 0 23.07 11.28 Q 20.938 11.6 19.2 12.287 A 12.616 12.616 0 0 0 16.7 13.6 A 9.902 9.902 0 0 0 14.537 15.565 A 7.359 7.359 0 0 0 12.9 20.3 A 10.464 10.464 0 0 0 13.192 22.822 A 8.562 8.562 0 0 0 14 24.9 Q 15.056 26.819 18.091 28.647 A 23.503 23.503 0 0 0 18.35 28.8 A 33.003 33.003 0 0 0 20.566 29.972 Q 22.835 31.075 26.046 32.323 A 130.016 130.016 0 0 0 28.1 33.1 A 81.228 81.228 0 0 1 33.078 35.129 Q 37.464 37.1 40.45 39.2 A 26.044 26.044 0 0 1 43.49 41.677 Q 45.713 43.806 46.9 46.15 A 17.579 17.579 0 0 1 48.641 52.013 A 22.155 22.155 0 0 1 48.8 54.7 A 21.71 21.71 0 0 1 48.133 60.201 A 17.105 17.105 0 0 1 45.55 65.8 Q 42.3 70.4 36.55 72.8 A 30.521 30.521 0 0 1 29.14 74.804 A 40.027 40.027 0 0 1 23.4 75.2 Q 16.1 75.2 10.1 73.25 A 38.206 38.206 0 0 1 4.733 71.068 A 28.433 28.433 0 0 1 0 68.1 Z M 103.9 69 L 97.7 75 L 70.8 47.3 L 70.8 74 L 61.8 74 L 61.8 0 L 70.8 0 L 70.8 42.3 L 94.3 21 L 99.5 26.7 L 79.4 44.5 L 103.9 69 Z M 201.6 69.8 L 205.4 62.3 A 18.557 18.557 0 0 0 208.544 64.426 Q 210.098 65.27 211.95 65.95 A 24.073 24.073 0 0 0 219.561 67.387 A 27.464 27.464 0 0 0 220.4 67.4 Q 225.792 67.4 228.635 65.685 A 7.738 7.738 0 0 0 228.85 65.55 Q 231.7 63.7 231.7 60.8 A 7.123 7.123 0 0 0 231.386 58.653 A 6.212 6.212 0 0 0 230.65 57.1 A 6.384 6.384 0 0 0 229.721 56.006 Q 228.707 55.034 227.034 54.081 A 22.3 22.3 0 0 0 226.8 53.95 A 28.462 28.462 0 0 0 224.806 52.957 Q 222.69 51.995 219.701 50.946 A 103.602 103.602 0 0 0 218.7 50.6 A 46.616 46.616 0 0 1 214.302 48.857 Q 212.188 47.883 210.512 46.795 A 19.335 19.335 0 0 1 207.75 44.65 A 11.324 11.324 0 0 1 204.456 38.654 A 16.794 16.794 0 0 1 204.1 35.1 Q 204.1 29.1 209.35 24.95 Q 213.754 21.469 221.008 20.908 A 37.527 37.527 0 0 1 223.9 20.8 A 40.794 40.794 0 0 1 228.346 21.031 Q 230.654 21.284 232.67 21.815 A 25.234 25.234 0 0 1 232.8 21.85 Q 236.7 22.9 239.8 24.5 L 237.3 31.9 Q 234.6 30.3 231.15 29.3 A 25.024 25.024 0 0 0 226.667 28.453 A 31.837 31.837 0 0 0 223.5 28.3 A 20.632 20.632 0 0 0 220.563 28.495 Q 217.477 28.94 215.6 30.4 A 9.322 9.322 0 0 0 214.242 31.673 Q 213.54 32.492 213.205 33.365 A 4.529 4.529 0 0 0 212.9 35 A 4.921 4.921 0 0 0 214.395 38.552 A 7.082 7.082 0 0 0 215 39.1 A 9.88 9.88 0 0 0 216.3 39.969 Q 218.573 41.271 222.998 42.734 A 84.459 84.459 0 0 0 223.2 42.8 A 67.753 67.753 0 0 1 228.262 44.698 Q 234.189 47.217 237 50.1 Q 240.9 54.1 240.9 60.1 Q 240.9 66.848 235.649 70.855 A 16.618 16.618 0 0 1 235.25 71.15 Q 230.51 74.547 223.062 75.095 A 40.423 40.423 0 0 1 220.1 75.2 Q 214.2 75.2 209.45 73.7 A 30.883 30.883 0 0 1 205.61 72.215 Q 203.629 71.284 202.048 70.136 A 18.229 18.229 0 0 1 201.6 69.8 Z M 137.4 57.7 L 137.4 0 L 146.4 0 L 146.4 56.8 A 20.644 20.644 0 0 0 146.588 59.688 Q 147.05 62.952 148.65 64.8 A 7.363 7.363 0 0 0 153.234 67.276 A 10.724 10.724 0 0 0 154.9 67.4 Q 156.8 67.4 158.65 66.95 A 22.192 22.192 0 0 0 160.113 66.544 Q 161.048 66.247 161.8 65.9 L 164 73.2 Q 162.601 73.822 160.688 74.323 A 34.978 34.978 0 0 1 159.55 74.6 A 23.816 23.816 0 0 1 156.395 75.085 A 30.514 30.514 0 0 1 153.7 75.2 A 20.862 20.862 0 0 1 148.81 74.646 A 17.544 17.544 0 0 1 145.4 73.45 A 12.683 12.683 0 0 1 140.075 68.685 A 15.856 15.856 0 0 1 139.55 67.8 Q 137.816 64.654 137.48 60.012 A 32.105 32.105 0 0 1 137.4 57.7 Z M 171 57.7 L 171 0 L 180 0 L 180 56.8 A 20.644 20.644 0 0 0 180.188 59.688 Q 180.65 62.952 182.25 64.8 A 7.363 7.363 0 0 0 186.834 67.276 A 10.724 10.724 0 0 0 188.5 67.4 Q 190.4 67.4 192.25 66.95 A 22.192 22.192 0 0 0 193.713 66.544 Q 194.648 66.247 195.4 65.9 L 197.6 73.2 Q 196.201 73.822 194.288 74.323 A 34.978 34.978 0 0 1 193.15 74.6 A 23.816 23.816 0 0 1 189.995 75.085 A 30.514 30.514 0 0 1 187.3 75.2 A 20.862 20.862 0 0 1 182.41 74.646 A 17.544 17.544 0 0 1 179 73.45 A 12.683 12.683 0 0 1 173.675 68.685 A 15.856 15.856 0 0 1 173.15 67.8 Q 171.416 64.654 171.08 60.012 A 32.105 32.105 0 0 1 171 57.7 Z M 121.9 74 L 112.9 74 L 112.9 22 L 121.9 22 L 121.9 74 Z M 113.037 11.288 A 5.973 5.973 0 0 0 117.4 13.1 A 8.175 8.175 0 0 0 118.896 12.969 A 5.647 5.647 0 0 0 122 11.35 Q 123.7 9.6 123.7 6.8 A 7.26 7.26 0 0 0 123.7 6.719 A 6.06 6.06 0 0 0 121.85 2.35 A 7.395 7.395 0 0 0 121.792 2.293 A 6.059 6.059 0 0 0 117.4 0.5 A 8.264 8.264 0 0 0 115.744 0.658 A 5.661 5.661 0 0 0 112.8 2.2 A 5.588 5.588 0 0 0 111.329 4.832 A 7.987 7.987 0 0 0 111.1 6.8 A 5.992 5.992 0 0 0 111.592 9.219 A 6.643 6.643 0 0 0 112.95 11.2 A 7.466 7.466 0 0 0 113.037 11.288 Z"
 vector-effect="non-scaling-stroke" /></g></svg>